<svg fill="none" height="512" viewBox="0 0 24 24" width="512" xmlns="http://www.w3.org/2000/svg" xmlns:xlink="http://www.w3.org/1999/xlink"><linearGradient id="paint0_linear_1_2606" gradientUnits="userSpaceOnUse" x1="12" x2="12" y1="3.625" y2="19.625"><stop offset="0" stop-color="#99f"/><stop offset="1" stop-color="#2b2bff"/></linearGradient><g fill="url(#paint0_linear_1_2606)"><path clip-rule="evenodd" d="m10.8447 8.09467c-.2929.29289-.2929.76777 0 1.06066l1.7196 1.71967h-8.1893c-.41421 0-.75.3358-.75.75s.33579.75.75.75h8.1893l-1.7196 1.7197c-.2929.2929-.2929.7677 0 1.0606s.7677.2929 1.0606 0l3-3c.2929-.2929.2929-.7677 0-1.0606l-3-3.00003c-.2929-.29289-.7677-.29289-1.0606 0z" fill-rule="evenodd"/><path d="m12.375 5.87745c0 .44795.2742.8398.591 1.15656l3 2.99999c.8787.8787.8787 2.3033 0 3.182l-3 3c-.3168.3167-.591.7086-.591 1.1566v2.2524c4.4183 0 8-3.5817 8-8 0-4.41828-3.5817-8-8-8z"/></g></svg>