<svg viewBox="0 0 32 32" xmlns="http://www.w3.org/2000/svg" xmlns:xlink="http://www.w3.org/1999/xlink"><linearGradient id="New_Gradient_Swatch_copy_4" gradientUnits="userSpaceOnUse" x1="7.28" x2="24.72" y1="26.38" y2="8.93"><stop offset="0" stop-color="#339"/><stop offset=".1" stop-color="#3c319b"/><stop offset=".26" stop-color="#542ba1"/><stop offset=".47" stop-color="#7c21ab"/><stop offset=".7" stop-color="#b313b9"/><stop offset=".97" stop-color="#f902ca"/><stop offset=".99" stop-color="#f0c"/></linearGradient><g id="Icon"><path d="m28.34 17.66a12.34 12.34 0 0 1 -24.68 0 12.23 12.23 0 0 1 5.9-10.51 1 1 0 0 1 1.38.33 1 1 0 0 1 -.33 1.37 10.24 10.24 0 0 0 -4.95 8.81 10.34 10.34 0 0 0 20.68 0 10.24 10.24 0 0 0 -4.95-8.81 1 1 0 0 1 -.33-1.37 1 1 0 0 1 1.38-.33 12.23 12.23 0 0 1 5.9 10.51zm-12.34-4.66a1 1 0 0 0 1-1v-9a1 1 0 0 0 -2 0v9a1 1 0 0 0 1 1z" fill="url(#New_Gradient_Swatch_copy_4)"/></g></svg>