<svg id="Layer_1" enable-background="new 0 0 100 100" viewBox="0 0 100 100" xmlns="http://www.w3.org/2000/svg" xmlns:xlink="http://www.w3.org/1999/xlink"><linearGradient id="SVGID_1_" gradientUnits="userSpaceOnUse" x1="-2.331" x2="102.123" y1="-3.75" y2="103.537"><stop offset=".1843576" stop-color="#29abe2"/><stop offset=".8211977" stop-color="#6200d2"/></linearGradient><path d="m83.7096786 16.2903233c-18.6935501-18.3870983-48.7258034-18.3870983-67.4193573 0-18.3870945 18.6935482-18.3870945 48.7258072 0 67.4193573 18.693552 18.3870926 48.7258072 18.3870926 67.4193573 0 18.3870926-18.6935521 18.3870926-48.7258091 0-67.4193573zm-59.4516124 7.967741c12.5645161-12.564517 31.870966-13.7903233 46.2741928-4.2903233l-50.2580624 50.5645161c-9.8064518-14.0967713-8.5806455-33.7096787 3.9838696-46.2741928zm51.4838695 51.4838714c-12.564518 12.5645142-31.8709679 13.7903214-46.2741928 4.2903214l50.2580643-50.5645142c9.8064499 14.0967713 8.5806427 33.7096749-3.9838715 46.2741928z" fill="url(#SVGID_1_)"/></svg>